<?xml version="1.0" encoding="utf-8"?>
<!-- Generator: Adobe Illustrator 26.5.0, SVG Export Plug-In . SVG Version: 6.00 Build 0)  -->
<svg version="1.1" xmlns="http://www.w3.org/2000/svg" xmlns:xlink="http://www.w3.org/1999/xlink" x="0px" y="0px"
	 viewBox="0 0 971.97 1109.75" style="enable-background:new 0 0 971.97 1109.75;" xml:space="preserve">
<style type="text/css">
	.st0{fill:#403E3D;}
	.st1{fill:#F2B707;}
	.st2{fill:#A62077;}
	.st3{fill:#BBBE36;}
	.st4{fill:#F2F0E9;}
	.st5{fill:#FFFFFF;}
	.st6{display:none;}
	.st7{display:inline;fill:#E6007E;}
</style>
<g id="Logo">
	<path class="st1" d="M439.18,513.46v29.69c0,10.49,8.5,18.99,18.99,18.99h101.5c18.15,0,32.87,14.72,32.87,32.87v116.65
		c0,18.15-14.72,32.87-32.87,32.87H420.93c-18.15,0-32.87-14.72-32.87-32.87v-316.2c0-18.15,14.72-32.87,32.87-32.87h138.74
		c18.15,0,32.87,14.72,32.87,32.87v76.41c0,0.32,161.53,0.58,161.53,0.58c0.32,0,0.57-0.26,0.55-0.58
		c-5.38-83.41,6.32-178.86-44.76-225.08c-64.97-58.79-180.17-43.46-265.86-29.62s-156.92,59.85-200.08,136.11
		c-39.2,69.26-47.23,154.46-32.65,244.79c14.59,90.33,19.99,200.76,79,254.16c64.97,58.79,177.97,59.51,263.66,45.67
		c85.69-13.84,136.61-81.86,179.77-158.11c38.67-68.31,39.51-137.88,25.53-226.44c-0.04-0.28-0.28-0.48-0.56-0.48H439.78
		C439.45,512.86,439.18,513.13,439.18,513.46z"/>
</g>
<g id="Spacer" class="st6">
</g>
</svg>
